<svg width="128" height="128" viewBox="0 0 128 128" fill="none" xmlns="http://www.w3.org/2000/svg">
<rect width="128" height="128" rx="32" fill="url(#paint0_radial_3348_52)"/>
<path d="M109.432 88L100.472 71.36H99.128V88H86.584V42.88H106.36C109.987 42.88 113.059 43.52 115.576 44.8C118.093 46.0373 119.992 47.7653 121.272 49.984C122.552 52.16 123.192 54.6133 123.192 57.344C123.192 60.416 122.339 63.1253 120.632 65.472C118.968 67.776 116.515 69.4187 113.272 70.4L123.448 88H109.432ZM99.128 62.784H105.336C107.043 62.784 108.323 62.3787 109.176 61.568C110.029 60.7573 110.456 59.584 110.456 58.048C110.456 56.5973 110.008 55.4667 109.112 54.656C108.259 53.8027 107 53.376 105.336 53.376H99.128V62.784Z" fill="#8484FF"/>
<mask id="path-3-outside-1_3348_52" maskUnits="userSpaceOnUse" x="5" y="15" width="87" height="97" fill="black">
<rect fill="white" x="5" y="15" width="87" height="97"/>
<path d="M63.2352 110.216L54.4992 97.112C52.0352 97.56 49.5339 97.784 46.9952 97.784C39.6032 97.784 32.8085 96.0667 26.6112 92.632C20.4139 89.1227 15.4859 84.3067 11.8272 78.184C8.24318 71.9867 6.45118 65.0053 6.45118 57.24C6.45118 49.4747 8.24318 42.5307 11.8272 36.408C15.4859 30.2107 20.4139 25.3947 26.6112 21.96C32.8085 18.5253 39.6032 16.808 46.9952 16.808C54.4619 16.808 61.2565 18.5253 67.3792 21.96C73.5765 25.3947 78.4672 30.2107 82.0512 36.408C85.6352 42.5307 87.4272 49.4747 87.4272 57.24C87.4272 63.736 86.1205 69.7467 83.5072 75.272C80.8939 80.7227 77.3099 85.2773 72.7552 88.936L89.4432 110.216H63.2352ZM28.8512 57.24C28.8512 63.4373 30.4565 68.3653 33.6672 72.024C36.8779 75.608 41.3205 77.4 46.9952 77.4C52.5952 77.4 57.0005 75.5707 60.2112 71.912C63.4965 68.2533 65.1392 63.3627 65.1392 57.24C65.1392 50.968 63.4965 46.04 60.2112 42.456C57.0005 38.7973 52.5952 36.968 46.9952 36.968C41.3205 36.968 36.8779 38.7973 33.6672 42.456C30.4565 46.04 28.8512 50.968 28.8512 57.24Z"/>
</mask>
<path d="M63.2352 110.216L54.4992 97.112C52.0352 97.56 49.5339 97.784 46.9952 97.784C39.6032 97.784 32.8085 96.0667 26.6112 92.632C20.4139 89.1227 15.4859 84.3067 11.8272 78.184C8.24318 71.9867 6.45118 65.0053 6.45118 57.24C6.45118 49.4747 8.24318 42.5307 11.8272 36.408C15.4859 30.2107 20.4139 25.3947 26.6112 21.96C32.8085 18.5253 39.6032 16.808 46.9952 16.808C54.4619 16.808 61.2565 18.5253 67.3792 21.96C73.5765 25.3947 78.4672 30.2107 82.0512 36.408C85.6352 42.5307 87.4272 49.4747 87.4272 57.24C87.4272 63.736 86.1205 69.7467 83.5072 75.272C80.8939 80.7227 77.3099 85.2773 72.7552 88.936L89.4432 110.216H63.2352ZM28.8512 57.24C28.8512 63.4373 30.4565 68.3653 33.6672 72.024C36.8779 75.608 41.3205 77.4 46.9952 77.4C52.5952 77.4 57.0005 75.5707 60.2112 71.912C63.4965 68.2533 65.1392 63.3627 65.1392 57.24C65.1392 50.968 63.4965 46.04 60.2112 42.456C57.0005 38.7973 52.5952 36.968 46.9952 36.968C41.3205 36.968 36.8779 38.7973 33.6672 42.456C30.4565 46.04 28.8512 50.968 28.8512 57.24Z" fill="black"/>
<path d="M63.2352 110.216L54.4992 97.112C52.0352 97.56 49.5339 97.784 46.9952 97.784C39.6032 97.784 32.8085 96.0667 26.6112 92.632C20.4139 89.1227 15.4859 84.3067 11.8272 78.184C8.24318 71.9867 6.45118 65.0053 6.45118 57.24C6.45118 49.4747 8.24318 42.5307 11.8272 36.408C15.4859 30.2107 20.4139 25.3947 26.6112 21.96C32.8085 18.5253 39.6032 16.808 46.9952 16.808C54.4619 16.808 61.2565 18.5253 67.3792 21.96C73.5765 25.3947 78.4672 30.2107 82.0512 36.408C85.6352 42.5307 87.4272 49.4747 87.4272 57.24C87.4272 63.736 86.1205 69.7467 83.5072 75.272C80.8939 80.7227 77.3099 85.2773 72.7552 88.936L89.4432 110.216H63.2352ZM28.8512 57.24C28.8512 63.4373 30.4565 68.3653 33.6672 72.024C36.8779 75.608 41.3205 77.4 46.9952 77.4C52.5952 77.4 57.0005 75.5707 60.2112 71.912C63.4965 68.2533 65.1392 63.3627 65.1392 57.24C65.1392 50.968 63.4965 46.04 60.2112 42.456C57.0005 38.7973 52.5952 36.968 46.9952 36.968C41.3205 36.968 36.8779 38.7973 33.6672 42.456C30.4565 46.04 28.8512 50.968 28.8512 57.24Z" fill="#8484FF"/>
<path d="M63.2352 110.216L62.4031 110.771L62.7 111.216H63.2352V110.216ZM54.4992 97.112L55.3312 96.5573L54.9668 96.0106L54.3203 96.1281L54.4992 97.112ZM26.6112 92.632L26.1184 93.5022L26.1264 93.5067L26.6112 92.632ZM11.8272 78.184L10.9615 78.6846L10.9651 78.6908L10.9688 78.697L11.8272 78.184ZM11.8272 36.408L10.966 35.8996L10.9642 35.9028L11.8272 36.408ZM67.3792 21.96L66.8899 22.8321L66.8944 22.8346L67.3792 21.96ZM82.0512 36.408L81.1855 36.9086L81.1882 36.9132L82.0512 36.408ZM83.5072 75.272L84.4089 75.7043L84.4112 75.6996L83.5072 75.272ZM72.7552 88.936L72.1289 88.1564L71.3584 88.7753L71.9683 89.5531L72.7552 88.936ZM89.4432 110.216V111.216H91.4982L90.2301 109.599L89.4432 110.216ZM33.6672 72.024L32.9155 72.6836L32.9224 72.6912L33.6672 72.024ZM60.2112 71.912L59.4671 71.2438L59.4596 71.2524L60.2112 71.912ZM60.2112 42.456L59.4596 43.1156L59.4667 43.1237L59.474 43.1317L60.2112 42.456ZM33.6672 42.456L34.4121 43.1233L34.4188 43.1156L33.6672 42.456ZM63.2352 110.216L64.0672 109.661L55.3312 96.5573L54.4992 97.112L53.6671 97.6667L62.4031 110.771L63.2352 110.216ZM54.4992 97.112L54.3203 96.1281C51.9161 96.5653 49.4747 96.784 46.9952 96.784V97.784V98.784C49.593 98.784 52.1542 98.5547 54.6781 98.0959L54.4992 97.112ZM46.9952 97.784V96.784C39.7652 96.784 33.1384 95.1062 27.0959 91.7573L26.6112 92.632L26.1264 93.5067C32.4786 97.0271 39.4412 98.784 46.9952 98.784V97.784ZM26.6112 92.632L27.1039 91.7618C21.0576 88.338 16.2555 83.6452 12.6856 77.671L11.8272 78.184L10.9688 78.697C14.7162 84.9681 19.7701 89.9073 26.1184 93.5022L26.6112 92.632ZM11.8272 78.184L12.6928 77.6834C9.20423 71.651 7.45118 64.8449 7.45118 57.24H6.45118H5.45118C5.45118 65.1658 7.28214 72.3224 10.9615 78.6846L11.8272 78.184ZM6.45118 57.24H7.45118C7.45118 49.6349 9.20425 42.8683 12.6902 36.9132L11.8272 36.408L10.9642 35.9028C7.28212 42.193 5.45118 49.3144 5.45118 57.24H6.45118ZM11.8272 36.408L12.6883 36.9164C16.2579 30.8699 21.057 26.1815 27.0959 22.8346L26.6112 21.96L26.1264 21.0853C19.7707 24.6078 14.7138 29.5514 10.9661 35.8996L11.8272 36.408ZM26.6112 21.96L27.0959 22.8346C33.1384 19.4858 39.7652 17.808 46.9952 17.808V16.808V15.808C39.4412 15.808 32.4786 17.5648 26.1264 21.0853L26.6112 21.96ZM46.9952 16.808V17.808C54.3018 17.808 60.9262 19.4866 66.8899 22.8321L67.3792 21.96L67.8684 21.0879C61.5868 17.564 54.6219 15.808 46.9952 15.808V16.808ZM67.3792 21.96L66.8944 22.8346C72.9315 26.1805 77.6913 30.8665 81.1855 36.9086L82.0512 36.408L82.9169 35.9074C79.2431 29.5549 74.2215 24.6088 67.8639 21.0853L67.3792 21.96ZM82.0512 36.408L81.1882 36.9132C84.6741 42.8683 86.4272 49.6349 86.4272 57.24H87.4272H88.4272C88.4272 49.3144 86.5963 42.193 82.9142 35.9028L82.0512 36.408ZM87.4272 57.24H86.4272C86.4272 63.5976 85.1494 69.4611 82.6032 74.8444L83.5072 75.272L84.4112 75.6996C87.0917 70.0322 88.4272 63.8744 88.4272 57.24H87.4272ZM83.5072 75.272L82.6055 74.8397C80.0545 80.1602 76.5629 84.5947 72.1289 88.1564L72.7552 88.936L73.3814 89.7156C78.0569 85.96 81.7332 81.2851 84.4089 75.7043L83.5072 75.272ZM72.7552 88.936L71.9683 89.5531L88.6563 110.833L89.4432 110.216L90.2301 109.599L73.5421 88.3189L72.7552 88.936ZM89.4432 110.216V109.216H63.2352V110.216V111.216H89.4432V110.216ZM28.8512 57.24H27.8512C27.8512 63.6118 29.5049 68.797 32.9156 72.6836L33.6672 72.024L34.4188 71.3644C31.4082 67.9337 29.8512 63.2629 29.8512 57.24H28.8512ZM33.6672 72.024L32.9224 72.6912C36.357 76.5253 41.0921 78.4 46.9952 78.4V77.4V76.4C41.549 76.4 37.3987 74.6907 34.412 71.3568L33.6672 72.024ZM46.9952 77.4V78.4C52.8351 78.4 57.5328 76.4802 60.9628 72.5716L60.2112 71.912L59.4596 71.2524C56.4683 74.6611 52.3553 76.4 46.9952 76.4V77.4ZM60.2112 71.912L60.9552 72.5801C64.4431 68.696 66.1392 63.5464 66.1392 57.24H65.1392H64.1392C64.1392 63.1789 62.55 67.8107 59.4671 71.2439L60.2112 71.912ZM65.1392 57.24H66.1392C66.1392 50.7927 64.4473 45.5973 60.9483 41.7803L60.2112 42.456L59.474 43.1317C62.5458 46.4827 64.1392 51.1433 64.1392 57.24H65.1392ZM60.2112 42.456L60.9628 41.7964C57.5328 37.8878 52.8351 35.968 46.9952 35.968V36.968V37.968C52.3553 37.968 56.4683 39.7069 59.4596 43.1156L60.2112 42.456ZM46.9952 36.968V35.968C41.0853 35.968 36.3483 37.8847 32.9156 41.7964L33.6672 42.456L34.4188 43.1156C37.4074 39.7099 41.5557 37.968 46.9952 37.968V36.968ZM33.6672 42.456L32.9224 41.7887C29.5026 45.6061 27.8512 50.7983 27.8512 57.24H28.8512H29.8512C29.8512 51.1377 31.4104 46.4739 34.412 43.1232L33.6672 42.456Z" fill="black" fill-opacity="0.99" mask="url(#path-3-outside-1_3348_52)"/>
<defs>
<radialGradient id="paint0_radial_3348_52" cx="0" cy="0" r="1" gradientUnits="userSpaceOnUse" gradientTransform="translate(64 64) rotate(90) scale(64)">
<stop offset="0.624756" stop-color="#3D3D3D"/>
<stop offset="1" stop-color="#515179"/>
</radialGradient>
</defs>
</svg>
